<?xml version="1.0" encoding="UTF-8"?>
<svg id="_图层_1" data-name="图层 1" xmlns="http://www.w3.org/2000/svg" viewBox="0 0 256 256">
  <defs>
    <style>
      .cls-1 {
        fill: #046535;
        font-size: 16px;
        stroke-width: .48px;
      }

      .cls-1, .cls-2, .cls-3 {
        font-family: Poppins-Black, Poppins;
        font-weight: 800;
      }

      .cls-1, .cls-4, .cls-5, .cls-3, .cls-6 {
        stroke-miterlimit: 10;
      }

      .cls-1, .cls-5, .cls-3, .cls-7 {
        stroke: #0f325b;
      }

      .cls-8, .cls-2, .cls-9 {
        stroke-linecap: round;
        stroke-linejoin: round;
      }

      .cls-8, .cls-4, .cls-5, .cls-6, .cls-7 {
        fill: none;
      }

      .cls-8, .cls-6 {
        stroke: #046535;
      }

      .cls-8, .cls-6, .cls-7 {
        stroke-width: 2.56px;
      }

      .cls-10 {
        fill: #0f325b;
      }

      .cls-2 {
        font-size: 35.04px;
        stroke-width: 2.56px;
      }

      .cls-2, .cls-9 {
        fill: #006535;
        stroke: #0f325b;
      }

      .cls-4 {
        stroke: #006837;
        stroke-width: 2.24px;
      }

      .cls-5 {
        stroke-width: 1.92px;
      }

      .cls-3 {
        fill: #009245;
        font-size: 10.88px;
        stroke-width: .96px;
      }

      .cls-9 {
        stroke-width: 2.94px;
      }

      .cls-11 {
        fill: #388366;
      }
    </style>
  </defs>
  <text class="cls-1" transform="translate(138.16 101.81)"><tspan x="0" y="0">®</tspan></text>
  <g>
    <g>
      <path class="cls-11" d="M172.11,140.56c.93,0,1.69-.8,1.69-1.8s-.76-1.8-1.69-1.8-1.7.81-1.7,1.8.76,1.8,1.7,1.8ZM107.04,161.97c-.56-2.23-.75-4.49-.63-6.69.09-1.55.3-3.08.66-4.57,1.24-5.33,4.04-10.08,7.1-13.16,2.12-2.14,4.71-3.81,7.6-5,3.19-1.3,6.75-2,10.48-2.05,6.82-.09,14.21,1.97,20.92,6.47-3.4-3.7-9.27-10.83-10.16-17.74-.16-1.24-.51-3.93.82-4.94.92-.69,2.3-.34,3.35.1.4.17.77.35,1.04.48,5.64,2.8,9.97,10.56,12.11,14.96,1.53-.78,3.1-1.3,4.66-1.59,7.12-1.32,14.08,2.19,16.75,8.16,2.99,6.68.04,15.2-5.5,19.19-5.32,3.81-12.96,3.38-18.78-1.16l-.02.03c1.73,4.71.94,7.7.4,9.06-2.78,7.07-14.49,11.13-28.75,7.76,2.6,1.92,5.46,4.82,7.37,9.08,1.5,3.33,3.14,8.54,1.79,9.45-1.07.73-3.64-1.58-4.88-2.68-4.87-4.32-12.25-10.45-24.2-19.82-.72-1.27-1.58-3.07-2.14-5.33Z"/>
      <path class="cls-11" d="M172.11,140.56c-.94,0-1.7-.8-1.7-1.8s.76-1.8,1.7-1.8,1.69.81,1.69,1.8-.76,1.8-1.69,1.8Z"/>
      <path class="cls-11" d="M70.09,113.61c20.59-8.74,38.39-11.01,46.98-6.46,8.52,4.51,10.58,10.58,10.58,10.58.35,1.03,1.27,3.89.27,7.3-.35,1.18-1.53,5.23-5.81,7.13-.09.04-.24.1-.42.17-1.33.51-4.83,1.58-8.25-.11-1.08-.54-1.9-1.23-2.51-1.92-.44.45-5.55,5.49-12.75,4.45-4.17-.6-6.81-2.92-7.76-3.84-2.61,1.52-5.48,2.07-8.01,1.5-3.81-.85-5.95-4.06-6.64-5.22l-.02-.27c-2.9.27-5.68-.19-8.04-1.38-4.28-2.17-5.98-6.18-6.55-7.83,3.02-1.5,6-2.87,8.93-4.12Z"/>
      <path class="cls-10" d="M138.35,112.26c.4.05.82.08,1.28.08.17,0,.35-.01.53-.02-.68.93-1.04,1.99-1.22,3.04-.13-1.02-.32-2.05-.59-3.1Z"/>
      <path class="cls-10" d="M137.98,126.82c.54-1.89.97-4.07,1.12-6.42.03.2.07.41.11.61.02.11.04.22.07.34.08.36.16.72.26,1.07.02.06.03.13.05.18.12.42.25.83.38,1.24l.11.3c.12.34.24.68.38,1.02.04.09.07.17.1.26.17.41.34.81.52,1.21.04.08.08.16.11.24.09.19.18.39.28.58-1.16-.27-2.31-.47-3.48-.63Z"/>
      <path class="cls-11" d="M107.02,150.7h.06c-.36,1.5-.58,3.03-.66,4.58h-.04c-.17.16-2.23,2.08-4.78,1.36-1.59-.45-3.52-1.97-3.4-3.85.16-2.35,3.42-3.26,3.62-3.31,2.65-.71,4.84.94,5.2,1.23Z"/>
      <path class="cls-11" d="M66.87,110.28c24.28-12.09,46.1-15.78,55.92-10.58,2.48,1.31,7.77,4.31,10.58,10.58,4.05,9.07-.17,18.3-1.1,20.23-3.73.05-7.29.75-10.48,2.05l-.09-.21c.18-.07.33-.13.42-.17,4.28-1.9,5.46-5.95,5.81-7.13.99-3.42.08-6.27-.27-7.3,0,0-2.06-6.07-10.58-10.58-8.6-4.55-26.39-2.28-46.98,6.46-.34-.14-.7-.33-1.07-.59-1.26-.89-1.87-2.06-2.15-2.74Z"/>
      <path class="cls-11" d="M148.22,111.96c1.28-.98,3.34.05,4.39.58,5.26,2.64,10.78,12.55,12.33,15.42l.05.28c-1.56.3-3.13.81-4.66,1.59-2.14-4.4-6.47-12.16-12.11-14.96-.27-.13-.64-.31-1.04-.48.05-.7.23-1.83,1.03-2.43Z"/>
      <path class="cls-11" d="M154.89,98.49c.8,1.85-2.58,5.28-7.56,7.66-4.98,2.39-9.66,2.83-10.46.98-.8-1.84,2.59-5.28,7.57-7.66,4.97-2.38,9.66-2.82,10.45-.98Z"/>
      <path class="cls-10" d="M138.94,115.35c.17-1.04.54-2.1,1.22-3.04-.17,0-.35.02-.53.02-.46,0-.88-.03-1.28-.08.27,1.05.46,2.08.59,3.1ZM147.32,106.15c4.98-2.39,8.36-5.81,7.56-7.66-.79-1.84-5.48-1.41-10.45.98-4.98,2.39-8.37,5.82-7.57,7.66.8,1.85,5.48,1.41,10.46-.98ZM114.18,137.55c-3.06,3.08-5.86,7.84-7.1,13.16h-.06c-.36-.3-2.55-1.95-5.2-1.24-.2.05-3.46.97-3.62,3.31-.13,1.88,1.8,3.4,3.4,3.85,2.55.73,4.61-1.2,4.78-1.36h.04c-.12,2.21.06,4.46.63,6.69.57,2.26,1.43,4.07,2.14,5.33,11.95,9.37,19.33,15.49,24.2,19.82,1.24,1.09,3.81,3.41,4.88,2.68,1.35-.91-.3-6.12-1.79-9.45-1.92-4.26-4.78-7.16-7.37-9.08,14.26,3.37,25.97-.69,28.75-7.76.54-1.36,1.33-4.35-.4-9.06l.02-.03c5.82,4.54,13.46,4.97,18.78,1.16,5.54-3.98,8.48-12.51,5.5-19.19-2.67-5.96-9.63-9.48-16.75-8.16l-.05-.28c-1.55-2.87-7.08-12.78-12.33-15.42-1.05-.52-3.11-1.55-4.39-.58-.79.6-.98,1.73-1.03,2.43-1.06-.43-2.44-.79-3.35-.1-1.33,1.01-.98,3.7-.82,4.94.89,6.9,6.76,14.04,10.16,17.74-6.71-4.5-14.1-6.56-20.92-6.47.94-1.93,5.15-11.16,1.1-20.23-2.81-6.27-8.1-9.27-10.58-10.58-9.82-5.19-31.64-1.5-55.92,10.58.28.69.9,1.86,2.15,2.74.37.26.73.45,1.07.59-2.93,1.25-5.91,2.62-8.93,4.12.57,1.64,2.27,5.66,6.55,7.83,2.36,1.19,5.14,1.65,8.04,1.38l.02.27c.69,1.16,2.83,4.37,6.64,5.22,2.53.56,5.4.01,8.01-1.5.95.92,3.59,3.24,7.76,3.84,7.2,1.04,12.31-4,12.75-4.45.61.69,1.43,1.38,2.51,1.92,3.42,1.7,6.92.63,8.25.11l.09.21c-2.9,1.18-5.48,2.86-7.6,5ZM133.65,103.15c.04-.08.1-.16.15-.24-.31-.15-.59-.35-.86-.58.24.26.47.54.71.82ZM141.46,127.45c-.09-.19-.18-.39-.28-.58-.04-.08-.08-.16-.11-.24-.18-.4-.36-.81-.52-1.21-.04-.09-.07-.17-.1-.26-.13-.34-.26-.68-.38-1.02l-.11-.3c-.13-.41-.26-.82-.38-1.24-.02-.06-.03-.12-.05-.18-.09-.36-.18-.72-.26-1.07-.03-.11-.05-.22-.07-.34-.04-.2-.08-.41-.11-.61-.15,2.36-.58,4.54-1.12,6.42,1.17.17,2.33.36,3.48.63ZM185.46,134.73c3.65,8.16.65,18.76-6.83,24.15-.39.28-.77.53-1.18.77-2.88,1.74-6.14,2.61-9.47,2.61-1.83,0-3.68-.28-5.49-.79-.03.24-.06.48-.1.72,0,.04-.01.09-.02.14-.07.41-.16.82-.27,1.22-.03.09-.05.19-.08.28-.12.4-.24.8-.39,1.18-.18.45-.38.88-.6,1.31-2.88,5.55-9.43,9.07-17.66,9.98-.09,0-.17.02-.26.03-.47.05-.95.08-1.43.11-.19.01-.38.04-.57.04-.36.02-.72.02-1.08.03-.31,0-.62.03-.94.03.04.08.08.16.12.24.34.62.67,1.26.96,1.91,5.09,11.31,1.52,13.7.35,14.49-.89.6-1.8.86-2.7.86-.59,0-1.18-.11-1.75-.3-1.03-.31-2.01-.87-2.97-1.58-.21-.15-.43-.31-.63-.47l-.04-.03c-.62-.49-1.19-.98-1.66-1.4l-.09-.08c-4.64-4.12-11.05-9.42-19.51-16.12-.2-.16-.4-.31-.6-.47-.19-.15-.38-.3-.57-.45-.85-.67-1.72-1.36-2.61-2.06-.51-.26-.96-.63-1.33-1.1-.56-.55-.92-1.21-1.09-1.93-.05-.1-.1-.2-.15-.3-.14-.3-.27-.6-.4-.9-.1-.22-.2-.43-.29-.65-.14-.34-.26-.69-.38-1.04-.06-.18-.14-.37-.2-.56-.16-.5-.3-.99-.43-1.5,0-.02-.01-.04-.02-.07,0-.02-.01-.04-.02-.06-.17-.69-.31-1.4-.43-2.11-.34,0-.7-.03-1.06-.08-.38-.05-.76-.13-1.13-.24-3.35-.95-6.61-4.02-6.34-8.03.29-4.28,4.3-6.39,6.67-6.98.36-.09.71-.16,1.05-.21.07,0,.14-.02.22-.03.71-.09,1.38-.08,2.02-.01.08,0,.15.01.22.02.06,0,.13.01.19.02,1.33-3.4,3.21-6.59,5.47-9.22-1.02.61-2.23,1.22-3.59,1.72-.02,0-.04.01-.05.02-.41.15-.83.28-1.27.41-.09.02-.17.05-.26.07-.38.1-.77.19-1.16.27-.12.02-.23.04-.34.07-.4.07-.81.13-1.24.18-.11,0-.21.03-.31.04-.53.05-1.06.08-1.62.08-.42,0-.84-.02-1.27-.05-.43-.03-.85-.07-1.27-.13s-.84-.14-1.25-.23c-.12-.03-.24-.06-.36-.09-.31-.08-.61-.16-.92-.25-.12-.04-.23-.07-.35-.1-.4-.13-.8-.27-1.2-.43-.03,0-.05-.02-.07-.03-.37-.15-.73-.31-1.09-.49-.12-.06-.22-.11-.34-.17-.29-.15-.57-.3-.85-.46-.1-.06-.21-.12-.3-.17-.36-.21-.71-.44-1.04-.68-.04.01-.07.02-.11.04-.83.31-1.67.54-2.51.71-.08.01-.16.03-.24.04-.35.06-.7.11-1.05.15-.09,0-.17.02-.26.03-.42.04-.83.06-1.24.06-.98,0-1.96-.1-2.91-.31-.43-.09-.84-.21-1.23-.35-.1-.03-.19-.06-.29-.1-.39-.13-.76-.28-1.11-.45-.03-.01-.05-.03-.07-.04-.34-.16-.66-.34-.97-.52-.08-.04-.16-.09-.24-.14-.32-.19-.63-.39-.92-.6-.04-.03-.07-.05-.1-.08-.26-.19-.51-.39-.76-.6-.07-.05-.13-.11-.19-.16-.26-.22-.5-.45-.73-.68-.04-.04-.07-.08-.11-.12-.2-.21-.39-.41-.57-.61-.05-.06-.1-.12-.15-.17-.2-.23-.38-.45-.56-.68,0-.01-.02-.03-.03-.04-.01,0-.03,0-.04,0-.11,0-.23-.01-.34-.02-.28-.02-.56-.04-.84-.06-.17-.01-.34-.04-.51-.05-.22-.03-.44-.06-.66-.09-.17-.03-.35-.05-.53-.09-.27-.05-.53-.11-.8-.17-.22-.05-.44-.11-.65-.17-.24-.06-.47-.13-.71-.2-.15-.05-.3-.1-.45-.15-.23-.08-.47-.17-.69-.26-.12-.05-.25-.1-.37-.15-.35-.15-.69-.3-1.03-.47-5.32-2.7-7.64-7.5-8.55-10.12-.67-1.93.2-4.06,2.02-4.97,1.32-.65,2.64-1.28,3.96-1.9-.06-.13-.13-.25-.19-.39-.81-1.97.04-4.23,1.95-5.18,1.01-.5,2.01-.98,3-1.46.13-.06.26-.13.4-.19,21-9.91,40-13.75,51.76-10.6.11.03.22.06.33.09.37.11.74.22,1.1.34.15.05.29.1.43.15.33.12.65.25.97.38.13.05.26.1.39.16.43.19.85.39,1.25.6,1.34.71,4.35,2.31,7.28,5.22l-7.18-8.14c-1.48-1.68-1.32-4.25.36-5.74,1.68-1.48,4.24-1.32,5.73.36l7.75,8.78c.3.34.51.71.67,1.1.67-.43,1.36-.84,2.06-1.22-.15-.35-.28-.71-.33-1.11l-1.92-14.36c-.3-2.23,1.27-4.27,3.49-4.56,2.22-.3,4.27,1.27,4.56,3.49l1.83,13.7c1.11-.22,2.16-.34,3.13-.34.17,0,.34,0,.5.02.02-.9.33-1.8.96-2.53l10.57-12.27c1.46-1.7,4.03-1.89,5.73-.43,1.7,1.46,1.89,4.03.43,5.73l-10.57,12.27c-.32.37-.7.65-1.11.88.1.25.18.49.25.74.64-.6,1.45-1.01,2.39-1.1l11.25-1.09c2.23-.22,4.22,1.41,4.44,3.65.21,2.23-1.42,4.22-3.65,4.43l-11.26,1.09c-.13.01-.26.02-.4.02-1.53,0-2.89-.87-3.58-2.17-.28.47-.61.94-.98,1.39.29.02.57.07.86.16l15.46,4.68c2.15.65,3.36,2.92,2.71,5.06-.53,1.76-2.14,2.89-3.89,2.89-.39,0-.79-.06-1.18-.17l-11.39-3.45c2.9,3.09,5.54,7.12,7.67,10.84.13,0,.26,0,.39,0,.09,0,.18-.01.28-.01,5.95,0,11.41,2.58,14.94,6.82.02.03.04.06.07.09.28.34.54.69.8,1.05.06.08.12.16.17.25.21.32.42.65.62.99.06.11.13.21.19.31.24.43.47.87.67,1.33ZM152.73,108.14c0-.13,0-.26,0-.4-.13.09-.26.17-.39.26.13.04.26.09.39.14Z"/>
    </g>
    <g>
      <path class="cls-6" d="M136.87,107.13c.8,1.85,5.48,1.41,10.46-.98,4.98-2.39,8.36-5.81,7.56-7.66-.79-1.84-5.48-1.41-10.45.98-4.98,2.39-8.37,5.82-7.57,7.66Z"/>
      <line class="cls-8" x1="135.59" y1="99.28" x2="127.84" y2="90.5"/>
      <line class="cls-8" x1="145.06" y1="94.83" x2="143.15" y2="80.47"/>
      <line class="cls-8" x1="161.67" y1="100.63" x2="172.92" y2="99.53"/>
      <line class="cls-8" x1="156.67" y1="93.42" x2="167.24" y2="81.15"/>
      <line class="cls-8" x1="156.78" y1="107.96" x2="172.23" y2="112.64"/>
      <path class="cls-6" d="M173.81,138.77c0,.99-.76,1.8-1.69,1.8s-1.7-.8-1.7-1.8.76-1.8,1.7-1.8,1.69.81,1.69,1.8Z"/>
      <path class="cls-6" d="M109.28,167.47c-.04-.05-.06-.11-.09-.17-.72-1.27-1.58-3.07-2.14-5.33-.56-2.23-.75-4.49-.63-6.69.09-1.55.3-3.08.66-4.57,1.24-5.33,4.04-10.08,7.1-13.16,2.12-2.14,4.71-3.81,7.6-5,3.19-1.3,6.75-2,10.48-2.05,6.82-.09,14.21,1.97,20.92,6.47"/>
      <path class="cls-6" d="M153.18,136.97c-3.4-3.7-9.27-10.83-10.16-17.74-.16-1.24-.51-3.93.82-4.94.92-.69,2.3-.34,3.35.1.4.17.77.35,1.04.48,5.64,2.8,9.97,10.56,12.11,14.96.08.16.15.31.22.46"/>
      <path class="cls-6" d="M147.2,114.39c.05-.7.23-1.83,1.03-2.43,1.28-.98,3.34.05,4.39.58,5.26,2.64,10.78,12.55,12.33,15.42"/>
      <path class="cls-6" d="M153.8,132.61c-1.35-1.49-3.67-4.37-4.02-7.15-.06-.5-.2-1.58.33-1.99.5-.39,1.35.04,1.74.23,2.31,1.17,4.07,4.48,4.88,6.21"/>
      <path class="cls-6" d="M159.27,130.43c.35-.21.72-.42,1.08-.6,1.53-.78,3.1-1.3,4.66-1.59,7.12-1.32,14.08,2.19,16.75,8.16,2.99,6.68.04,15.2-5.5,19.19-5.32,3.81-12.96,3.38-18.78-1.16-1.59-1.25-3.06-2.81-4.3-4.67"/>
      <path class="cls-6" d="M157.46,154.45c1.73,4.71.94,7.7.4,9.06-2.78,7.07-14.49,11.13-28.75,7.76"/>
      <path class="cls-6" d="M107.04,161.97c.1-.81,1.4-9.71,8.58-12.81.78-.33,6.51-2.71,9.83.31,2.83,2.57,3.07,8.35-.52,13.32"/>
      <path class="cls-6" d="M107.02,150.7c-.36-.29-2.55-1.94-5.2-1.23-.2.05-3.46.97-3.62,3.31-.13,1.88,1.8,3.4,3.4,3.85,2.55.73,4.61-1.2,4.78-1.36"/>
      <path class="cls-6" d="M108.93,167.11c.09.07.17.14.26.2,11.95,9.37,19.33,15.49,24.2,19.82,1.24,1.09,3.81,3.41,4.88,2.68,1.35-.91-.3-6.12-1.79-9.45-1.92-4.26-4.78-7.16-7.37-9.08,0,0,0,0,0,0-2.36-1.76-4.51-2.7-5.5-3.08"/>
      <path class="cls-6" d="M114.81,123.26c-.73,1.73-.14,3.57,1.24,4.4,1.58.95,3.48.17,3.64.11,1.21-.52,1.77-1.47,2.14-2.13.29-.49.81-1.38.76-2.56-.07-1.67-1.25-3.11-2.62-3.87-1.84-1.01-3.74-.63-4.97-.4-1,.21-3.52.7-5.05,2.82-1.77,2.44-.9,5.17-.68,5.86.08.26.51,1.55,1.66,2.84.61.69,1.43,1.38,2.51,1.92,3.42,1.7,6.92.63,8.25.11.18-.07.33-.13.42-.17,4.28-1.9,5.46-5.95,5.81-7.13.99-3.42.08-6.27-.27-7.3,0,0-2.06-6.07-10.58-10.58-8.6-4.55-26.39-2.28-46.98,6.46-2.93,1.25-5.91,2.62-8.93,4.12.57,1.64,2.27,5.66,6.55,7.83,2.36,1.19,5.14,1.65,8.04,1.38,4.63-.41,9.54-2.67,13.37-6.67"/>
      <path class="cls-6" d="M132.26,130.5c.94-1.93,5.15-11.16,1.1-20.23-2.81-6.27-8.1-9.27-10.58-10.58-9.82-5.19-31.64-1.5-55.92,10.58.28.69.9,1.86,2.15,2.74.37.26.73.45,1.07.59"/>
      <path class="cls-6" d="M75.77,127.21c.69,1.16,2.83,4.37,6.64,5.22,2.53.56,5.4.01,8.01-1.5,2.91-1.68,5.52-4.54,7.01-8.36"/>
      <path class="cls-6" d="M90.42,130.92h0c.95.93,3.59,3.25,7.76,3.85,7.2,1.04,12.31-4,12.75-4.45h0"/>
      <path class="cls-7" d="M185.46,134.73c-.2-.46-.43-.9-.67-1.33-.06-.11-.13-.21-.19-.31-.2-.34-.4-.67-.62-.99-.06-.09-.12-.17-.17-.25-.26-.36-.52-.71-.8-1.05-.02-.03-.04-.06-.07-.09-3.52-4.24-8.98-6.82-14.94-6.82-.09,0-.18.01-.28.01-.13,0-.26,0-.39,0-2.13-3.72-4.78-7.75-7.67-10.84l11.39,3.45c.39.12.79.17,1.18.17,1.74,0,3.35-1.13,3.89-2.89.65-2.14-.56-4.41-2.71-5.06l-15.46-4.68c-.29-.09-.57-.13-.86-.16.37-.46.7-.92.98-1.39.69,1.3,2.05,2.17,3.58,2.17.13,0,.26,0,.4-.02l11.26-1.09c2.23-.21,3.86-2.2,3.65-4.43-.22-2.23-2.21-3.87-4.44-3.65l-11.25,1.09c-.94.09-1.75.5-2.39,1.1-.06-.25-.14-.49-.25-.74.41-.23.79-.51,1.11-.88l10.57-12.27c1.46-1.7,1.27-4.27-.43-5.73-1.7-1.46-4.26-1.27-5.73.43l-10.57,12.27c-.64.73-.94,1.63-.96,2.53-.17,0-.33-.02-.5-.02-.97,0-2.02.12-3.13.34l-1.83-13.7c-.3-2.22-2.35-3.78-4.56-3.49-2.22.3-3.78,2.34-3.49,4.56l1.92,14.36c.05.4.17.76.33,1.11-.69.38-1.39.78-2.06,1.22-.17-.39-.38-.76-.67-1.1l-7.75-8.78c-1.49-1.68-4.05-1.84-5.73-.36-1.68,1.49-1.84,4.05-.36,5.74l7.18,8.14c-2.94-2.9-5.95-4.5-7.28-5.22-.4-.21-.82-.41-1.25-.6-.13-.06-.26-.11-.39-.16-.32-.13-.64-.26-.97-.38-.14-.05-.29-.1-.43-.15-.36-.12-.73-.23-1.1-.34-.11-.03-.21-.06-.33-.09-11.76-3.15-30.76.69-51.76,10.6-.13.06-.27.13-.4.19-1,.47-2,.95-3,1.46-1.9.95-2.75,3.21-1.95,5.18.05.13.13.26.19.39-1.32.62-2.64,1.24-3.96,1.9-1.83.91-2.7,3.04-2.02,4.97.91,2.62,3.23,7.42,8.55,10.12.34.17.68.32,1.03.47.12.05.25.1.37.15.23.09.46.17.69.26.15.05.3.1.45.15.23.07.47.14.71.2.21.06.43.12.65.17.26.06.53.12.8.17.17.03.35.06.53.09.22.04.44.07.66.09.17.02.34.04.51.05.28.03.56.04.84.06.11,0,.23.01.34.02.02,0,.03,0,.04,0,0,0,.02.02.03.04.17.22.36.45.56.68.05.05.1.11.15.17.18.2.37.4.57.61.04.04.08.08.11.12.23.23.48.46.73.68.06.05.13.11.19.16.24.21.49.41.76.6.04.03.07.05.1.08.29.21.6.41.92.6.08.05.16.09.24.14.31.18.63.36.97.52.02,0,.04.02.07.04.35.17.73.31,1.11.45.09.04.19.07.29.1.39.13.8.26,1.23.35.94.21,1.92.31,2.91.31.41,0,.83-.02,1.24-.06.09,0,.17-.02.26-.03.35-.04.7-.09,1.05-.15.08-.01.16-.03.24-.04.84-.17,1.68-.4,2.51-.71.04-.01.07-.02.11-.04.34.24.69.46,1.04.68.1.06.2.12.3.17.28.16.56.31.85.46.11.06.22.11.34.17.36.17.72.34,1.09.49.02,0,.04.02.07.03.39.16.79.3,1.2.43.12.04.23.07.35.1.3.09.61.17.92.25.12.03.24.06.36.09.41.09.83.17,1.25.23s.85.11,1.27.13c.43.03.86.05,1.27.05.56,0,1.09-.03,1.62-.08.11,0,.21-.03.31-.04.42-.05.83-.11,1.24-.18.12-.02.23-.04.34-.07.4-.08.78-.17,1.16-.27.09-.02.17-.05.26-.07.43-.13.86-.26,1.27-.41.01,0,.03-.01.05-.02,1.37-.5,2.57-1.11,3.59-1.72-2.26,2.63-4.14,5.82-5.47,9.22-.06,0-.13-.01-.19-.02-.07,0-.14-.02-.22-.02-.64-.07-1.31-.07-2.02.01-.08,0-.15.02-.22.03-.34.05-.69.11-1.05.21-2.37.59-6.38,2.7-6.67,6.98-.27,4.01,2.99,7.07,6.34,8.03.37.1.75.18,1.13.24.36.05.71.07,1.06.08.12.71.26,1.41.43,2.11,0,.02.01.04.02.06,0,.02,0,.04.02.07.13.5.27,1,.43,1.5.06.19.14.37.2.56.13.35.24.7.38,1.04.09.22.19.43.29.65.13.3.26.61.4.9.05.1.1.2.15.3.17.72.54,1.38,1.09,1.93.37.47.82.84,1.33,1.1.89.7,1.76,1.38,2.61,2.06.19.15.38.3.57.45.2.16.4.31.6.47,8.46,6.7,14.87,12,19.51,16.12l.09.08c.47.42,1.03.91,1.66,1.4l.04.03c.2.16.41.32.63.47.96.71,1.95,1.27,2.97,1.58.57.18,1.16.3,1.75.3.9,0,1.8-.25,2.7-.86,1.17-.78,4.74-3.17-.35-14.49-.3-.65-.62-1.29-.96-1.91-.04-.08-.08-.16-.12-.24.31,0,.62-.02.94-.03.36,0,.72,0,1.08-.03.19,0,.38-.03.57-.04.48-.03.96-.06,1.43-.11.09,0,.17-.02.26-.03,8.23-.91,14.78-4.44,17.66-9.98.22-.43.42-.86.6-1.31.15-.39.28-.78.39-1.18.03-.09.05-.19.08-.28.11-.4.2-.81.27-1.22,0-.04,0-.09.02-.14.04-.24.07-.47.1-.72,1.82.51,3.66.79,5.49.79,3.33,0,6.59-.86,9.47-2.61.4-.24.79-.5,1.18-.77,7.48-5.38,10.48-15.99,6.83-24.15Z"/>
      <path class="cls-7" d="M139.1,120.4c.03.2.07.41.11.61.02.11.04.22.07.34.08.36.16.72.26,1.07.02.06.03.13.05.18.12.42.25.83.38,1.24l.11.3c.12.34.24.68.38,1.02.04.09.07.17.1.26.17.41.34.81.52,1.21.04.08.08.16.11.24.09.19.18.39.28.58-1.16-.27-2.31-.47-3.48-.63.54-1.89.97-4.07,1.12-6.42Z"/>
      <path class="cls-7" d="M152.73,107.74c0,.13,0,.26,0,.4-.13-.05-.25-.1-.39-.14.13-.09.26-.17.39-.26Z"/>
      <path class="cls-7" d="M139.63,112.34c.17,0,.35-.01.53-.02-.68.93-1.04,1.99-1.22,3.04-.13-1.02-.32-2.05-.59-3.1.4.05.82.08,1.28.08Z"/>
      <path class="cls-7" d="M133.65,103.15c-.23-.28-.47-.56-.71-.82.27.23.55.43.86.58-.05.08-.11.16-.15.24Z"/>
    </g>
  </g>
  <g>
    <path class="cls-9" d="M40.17,56.85c-2.76,1.17-5.5,2.4-8.22,3.69.43.92.87,1.84,1.3,2.76,2.36-1.12,4.74-2.19,7.13-3.22.77,1.79,1.54,3.58,2.31,5.38-2.32,1-4.64,2.04-6.93,3.13.5,1.06,1,2.11,1.5,3.17,2.57-1.22,5.15-2.37,7.75-3.48.81,1.9,1.61,3.81,2.42,5.71-4.76,2.02-9.47,4.23-14.1,6.64-3.81-7.34-7.62-14.67-11.43-22.01,5.21-2.71,10.5-5.19,15.85-7.47.81,1.9,1.61,3.81,2.42,5.71Z"/>
    <path class="cls-9" d="M51.12,51.06c4.93-1.77,9.6-.04,11.99,4.64-2.58.8-5.16,1.64-7.72,2.54-.57-.8-1.27-1.19-2.19-.86-1.12.4-1.53,1.71-.7,3.95.83,2.23,1.97,2.97,3.05,2.58.89-.32,1.17-1.05,1.11-2.03,2.51-.88,5.04-1.71,7.58-2.5.63,5.24-1.84,9.14-6.28,10.73-5.16,1.85-10.21-.14-12.67-5.96-2.45-5.8.06-11.02,5.82-13.1Z"/>
    <path class="cls-9" d="M61.42,41.46c2.61-.77,5.23-1.5,7.86-2.17.76,2.96,1.52,5.93,2.28,8.89.66-1.94,2.26-3.83,5.22-4.51,4.55-1.03,7.84,1.77,8.78,6.79.72,3.75,1.44,7.5,2.16,11.25-2.34.45-4.68.94-7.01,1.48-.78-3.4-1.56-6.81-2.34-10.21-.42-1.84-1.73-2.73-3.35-2.34-1.65.4-2.37,1.79-1.9,3.62.87,3.38,1.74,6.76,2.61,10.15-2.33.6-4.65,1.24-6.96,1.92-2.45-8.29-4.9-16.57-7.35-24.86Z"/>
    <path class="cls-9" d="M99.38,60.08c-5.4.71-10.14-2.27-11.31-8.48-1.17-6.19,2.64-10.81,8.67-11.6,6.04-.79,10.89,2.68,11.36,8.96.48,6.3-3.32,10.4-8.72,11.11ZM98.5,53.41c1.29-.17,2.29-1.35,2.01-3.68-.28-2.33-1.56-3.24-2.9-3.06-1.33.17-2.35,1.38-2.01,3.71.34,2.32,1.58,3.21,2.9,3.03Z"/>
    <path class="cls-9" d="M121.36,33.36c6.49-.1,9.69,3.62,9.55,8.16-.09,3.26-1.95,5.96-5.35,7.11,1.73,3.17,3.39,6.35,4.96,9.56-2.62-.07-5.25-.08-7.87-.05-1.47-2.95-3.01-5.88-4.6-8.79-.01,0-.02,0-.03,0,.11,2.96.21,5.93.32,8.89-2.39.08-4.77.21-7.15.38-.59-8.25-1.18-16.49-1.77-24.74,3.98-.28,7.97-.46,11.96-.54ZM120.78,39.89c-1.03.02-2.07.05-3.1.09.05,1.4.1,2.8.15,4.2,1.01-.04,2.03-.06,3.04-.09,1.45-.03,2.2-.67,2.19-2.14-.01-1.26-.79-2.1-2.28-2.07Z"/>
    <path class="cls-9" d="M140.71,38.65c2.66.19,4.47,1.52,5.24,3.38.09-.9.17-1.79.26-2.69,2.6.25,5.2.54,7.79.88-.86,6.53-1.71,13.06-2.57,19.59-2.36-.31-4.73-.58-7.09-.8.08-.89.17-1.79.26-2.69-1.05,1.7-2.88,2.69-5.29,2.52-4.15-.29-7.34-4.12-7.18-10.5.17-6.37,3.94-10.02,8.58-9.7ZM142.78,45.62c-1.58-.13-2.9.94-3.04,3.11-.14,2.17.97,3.4,2.5,3.52,1.53.12,2.83-.91,3.04-3.07.21-2.16-.92-3.43-2.5-3.56Z"/>
    <path class="cls-9" d="M170.77,42.84c4.57.96,7.23,5.52,5.64,11.69-1.59,6.18-5.73,8.98-9.82,8.13-2.37-.5-3.84-1.95-4.39-3.87-.16.88-.33,1.77-.49,2.65-2.36-.43-4.72-.83-7.09-1.18,1.26-8.55,2.53-17.1,3.79-25.65,2.67.39,5.34.84,8.01,1.33-.54,2.91-1.07,5.81-1.61,8.72,1.25-1.58,3.33-2.37,5.95-1.82ZM166.87,48.98c-1.56-.31-3,.6-3.39,2.74-.39,2.14.59,3.49,2.09,3.79,1.51.3,2.92-.58,3.38-2.7.46-2.12-.52-3.52-2.09-3.83Z"/>
    <path class="cls-9" d="M194.26,49.16c4.46,1.47,6.63,6.3,4.37,12.26-2.26,5.96-6.72,8.28-10.71,6.97-2.32-.76-3.62-2.37-3.96-4.34-.26.86-.52,1.72-.78,2.58-2.31-.7-4.63-1.35-6.95-1.96,2.2-8.36,4.39-16.72,6.59-25.08,2.63.69,5.25,1.43,7.86,2.22-.85,2.83-1.71,5.66-2.56,8.49,1.43-1.44,3.59-1.99,6.15-1.14ZM189.68,54.83c-1.53-.48-3.06.27-3.68,2.35-.62,2.08.2,3.54,1.68,4,1.47.47,2.99-.25,3.68-2.31.69-2.06-.14-3.56-1.67-4.04Z"/>
    <path class="cls-9" d="M206.25,48.36c2.55.98,5.08,2.01,7.59,3.09-3.25,7.6-6.51,15.2-9.76,22.8-2.24-.96-4.49-1.87-6.75-2.75,2.97-7.71,5.95-15.43,8.92-23.14Z"/>
    <path class="cls-9" d="M213.65,63.96c-.75-.34-1.5-.68-2.25-1.01.87-1.98,1.74-3.95,2.61-5.93.77.34,1.54.69,2.31,1.04.66-1.45,1.31-2.89,1.97-4.34,2.49,1.13,4.97,2.32,7.43,3.55-.71,1.42-1.42,2.84-2.13,4.26,1,.5,1.99,1.01,2.99,1.52-.99,1.92-1.99,3.84-2.99,5.75-.96-.5-1.93-.99-2.9-1.48-.79,1.59-1.59,3.18-2.38,4.76-.41.82-.23,1.37.66,1.82.54.27,1.08.55,1.62.83-1.02,1.96-2.03,3.92-3.05,5.88-.82-.43-1.65-.85-2.48-1.27-3.89-1.95-6.08-5.08-3.57-10.68.72-1.57,1.43-3.15,2.15-4.72Z"/>
  </g>
  <text class="cls-3" transform="translate(189.01 93.15)"><tspan x="0" y="0">R</tspan></text>
  <circle class="cls-4" cx="192.53" cy="89.65" r="7.08"/>
  <circle class="cls-5" cx="192.53" cy="89.65" r="8.27"/>
  <text class="cls-2" transform="translate(55.24 224.39) scale(.89 1)"><tspan x="0" y="0">Software</tspan></text>
</svg>